# xmcd CD database file
#
# Track frame offsets:
#	150
#	17428
#	34359
#	50310
#	65771
#	85413
#	99037
#	113822
#	126390
#	149573
#	161104
#	177823
#	196194
#	216322
#
# Disc length: 3099 seconds
#
# Revision: 0
# Processed by: cddbd v1.5.2PL0 Copyright (c) Steve Scherf et al.
# Submitted via: CDex 1.51
#
DISCID=c70c190e
DTITLE=Bossa de novo - Nova
DYEAR=2009
DGENRE=Jazz
TTITLE0=Sestanek pod rjuho
TTITLE1=Pesem XIV. divizije
TTITLE2=Samba da minha terra
TTITLE3=Sinicja tozba
TTITLE4=Estate 
TTITLE5=Milagre 
TTITLE6=Crnobel portret
TTITLE7=O Leaozinho
TTITLE8=Meo fado meu
TTITLE9=Este seu olhar
TTITLE10=Sarava 
TTITLE11=O bebado e a equilibrista
TTITLE12=Nad mestom se dani
TTITLE13=Coracao vagabundo
EXTD=YEAR: 2009
EXTT0=
EXTT1=
EXTT2=
EXTT3=
EXTT4=
EXTT5=
EXTT6=
EXTT7=
EXTT8=
EXTT9=
EXTT10=
EXTT11=
EXTT12=
EXTT13=
PLAYORDER=
